<?xml version="1.0" encoding="UTF-8" standalone="no"?>
<!DOCTYPE svg PUBLIC "-//W3C//DTD SVG 1.1//EN" "http://www.w3.org/Graphics/SVG/1.1/DTD/svg11.dtd">
<svg width="100%" height="50%" viewBox="0 0 1702 1652" version="1.1" xmlns="http://www.w3.org/2000/svg" xmlns:xlink="http://www.w3.org/1999/xlink" xml:space="preserve" xmlns:serif="http://www.serif.com/" style="fill-rule:evenodd;clip-rule:evenodd;stroke-linecap:round;stroke-linejoin:round;stroke-miterlimit:1.5;">
    <g transform="matrix(1,0,0,1,-189,-215)">
        <g id="dream-lens-logo-id">
            <g id="sun-n-cloud-id">
                <g id="celestial-body-id">
                    <g id="sun-stripes-id">
                        <path id="sun-stripe3-id" d="M1704.62,790.502C1724.36,856.904 1734.96,927.224 1734.96,1000C1734.96,1405.63 1405.63,1734.96 1000,1734.96C594.367,1734.96 265.044,1405.63 265.044,1000C265.044,927.224 275.644,856.904 295.385,790.502L1704.62,790.502Z" style="fill:rgb(252,106,12);"/>
                        <path id="sun-stripe2-id" d="M1624.83,613.067C1658.85,667.839 1685.86,727.401 1704.62,790.502L295.385,790.502C314.143,727.401 341.155,667.839 375.166,613.067L1624.83,613.067Z" style="fill:rgb(253,139,32);"/>
                        <path id="sun-stripe1-id" d="M1470.61,435.633C1530.99,486.047 1583.16,545.961 1624.83,613.067L375.166,613.067C416.837,545.961 469.014,486.047 529.393,435.633L1470.61,435.633Z" style="fill:rgb(254,184,63);"/>
                        <path id="sun-stripe0-id" d="M529.393,435.633C656.92,329.15 821.033,265.044 1000,265.044C1178.97,265.044 1343.08,329.15 1470.61,435.633L529.393,435.633Z" style="fill:rgb(252,221,107);"/>
                    </g>
                    <g id="celestial-body-outline-id" transform="matrix(0.984242,0,0,0.984242,-110.519,15.4933)">
                        <circle cx="1128.3" cy="1000.27" r="746.723" style="fill:none;stroke:rgb(252,221,107);stroke-width:7.11px;"/>
                    </g>
                </g>
                <g id="cloud-body-id">
                    <g id="cloud-outline-id" transform="matrix(0.897232,0,0,0.897232,114.988,137.808)">
                        <path d="M695.326,770.883C766.001,626.779 911.04,555.992 1052.47,563.907C1144.56,569.061 1235.62,606.58 1300.84,679.497C1335.97,718.781 1363.49,768.214 1379.91,827.568C1412.59,835.455 1444.52,848.805 1474.28,868.351C1503.86,887.782 1531.47,912.754 1555.14,944.37C1602.25,945.966 1638.02,961.882 1663.6,985.133C1695.7,1014.31 1711.99,1055.28 1711.21,1096.3C1711.94,1137.4 1695.97,1178.73 1663.5,1207.46C1637.52,1230.46 1600.86,1245.43 1553.24,1245.44C1528.92,1276.23 1500.97,1300.53 1471.02,1318.83C1439.43,1338.13 1405.57,1350.64 1371.22,1356.86C1324.44,1523.08 1190.15,1608 1051.95,1616.73C912.717,1625.53 769.541,1556.14 700.309,1413.2C658.434,1421.7 619.894,1416.74 589.043,1400.78C557.742,1384.57 533.535,1356.58 521.246,1316.42C471.353,1322.07 425.199,1315.97 385.099,1302.21C320.742,1280.12 272.292,1236.89 246.379,1186.85C238.993,1172.58 233.649,1157.62 229.986,1142.42C226.404,1127.57 224.855,1112.39 225.02,1097.2C224.521,1081.43 225.983,1065.65 229.497,1050.17C232.971,1034.88 238.274,1019.84 245.5,1005.43C270.955,954.674 319.526,910.807 384.077,887.714C423.241,873.702 468.29,867.081 517.087,871.371C529.782,831.243 554.477,803.081 585.954,786.268C616.307,770.055 654.075,764.22 695.326,770.883ZM314.116,1098.37C314.177,1097.03 314.177,1095.68 314.116,1094.34C313.662,1085.88 314.258,1077.38 316.003,1069.04C317.778,1060.55 320.551,1052.18 324.407,1044.14C340.265,1011.09 372.075,983.328 413.481,967.693C450.088,953.87 493.933,949.301 541.769,958.338C553.311,960.623 565.279,957.873 574.666,950.779C584.052,943.685 589.965,932.922 590.916,921.195C593.151,890.321 604.482,868.095 624.504,856.946C646.321,844.797 675.282,844.794 706.555,854.114C726.407,860.219 747.578,849.799 754.848,830.343C803.303,696.274 927.629,629.411 1049.48,633.118C1125.08,635.418 1199.41,664.84 1255.87,721.832C1290.02,756.313 1318.49,800.116 1336.02,855.091C1338.68,864.626 1346.78,871.649 1356.59,872.936C1389.99,875.567 1423.51,884.366 1455.08,900.941C1484.69,916.488 1512.59,938.158 1537.28,966.551C1540,969.989 1544.2,971.926 1548.58,971.767C1592.46,968.51 1627.06,979.279 1651.39,999.263C1680.9,1023.5 1695.22,1060.09 1695.42,1096.3C1695.26,1132.64 1680.69,1168.91 1651.48,1193.55C1627.2,1214.04 1592.8,1226.21 1548.47,1224.04C1545.07,1223.91 1541.82,1225.41 1539.71,1228.08C1515.52,1257.62 1487.86,1280.55 1458.34,1297.29C1426.39,1315.42 1392.23,1326.14 1357.94,1330.07C1352.26,1330.81 1347.56,1334.88 1346.02,1340.41C1300.22,1492.92 1176.25,1568.72 1050,1571.65C924.051,1574.58 796.131,1504.18 747.398,1365.15C741.601,1349.63 724.721,1341.33 708.893,1346.19C675.39,1355.71 644.531,1354.69 621.415,1341.42C600.021,1329.14 587.959,1305.17 585.984,1271.91C585.147,1261.59 579.943,1252.12 571.682,1245.87C563.421,1239.63 552.888,1237.21 542.731,1239.22C493.973,1247.78 449.497,1242.33 412.458,1227.8C370.746,1211.42 339.148,1182.66 323.528,1148.99C319.749,1140.85 317.189,1132.35 315.514,1123.77C313.875,1115.38 313.546,1106.85 314.116,1098.37Z" style="fill:rgb(252,221,107);"/>
                    </g>
                    <g id="cloud-id" transform="matrix(0.897232,0,0,0.897232,114.988,137.808)">
                        <path d="M269.58,1096.35C268.476,1071.94 273.834,1047.45 284.953,1024.79C322.323,948.618 424.764,893.105 549.784,917.857C557.376,824.327 631.32,789.92 718.091,816.608C828.763,520.439 1268.08,520.102 1359.81,848.445C1428.62,857.469 1496.49,892.853 1548.08,957.996C1652.36,954.213 1703.79,1025.56 1703.32,1096.35C1703.79,1167.15 1652.36,1238.49 1548.08,1234.71C1496.49,1299.85 1428.62,1335.24 1359.81,1344.26C1268.08,1672.6 828.763,1672.27 718.091,1376.1C631.32,1402.79 557.376,1368.38 549.784,1274.85C424.764,1299.6 322.323,1244.09 284.953,1167.92C273.834,1145.26 268.476,1120.76 269.58,1096.35Z" style="fill:white;"/>
                    </g>
                    <g id="cloud-accent1-id" transform="matrix(1.03792,0,0,1,-34.0586,-2.23437)">
                        <path d="M811.073,939.842C821.395,904.292 836.84,872.329 856.947,845.211C898.213,789.56 956.701,752.786 1019.01,740.264C1114.02,721.172 1218.69,757.291 1285.02,866.869C1212.13,773.502 1113.73,750.114 1027.57,776.608C975.929,792.488 929.895,827.162 896.555,875.676C876.362,905.058 860.339,939.304 852.223,978.641L845.481,1011.39L816.841,995.965C795.493,983.627 758.46,973.223 728.054,984.633C704.689,993.401 686.24,1015.29 681.518,1058.5L679.19,1093.29L654.136,1070.06C620.249,1034.91 577.953,1019.67 538.45,1018.18C485.474,1016.2 437.87,1038.09 420.881,1071.56C434.439,1034.04 482.092,1004.88 538.043,1000.07C574.848,996.906 614.779,1004.83 651.528,1027.11C659.67,981.656 684.067,956.584 712.105,943.592C743.27,929.151 780.9,931.347 811.073,939.842Z" style="fill:rgb(254,184,63);"/>
                    </g>
                    <g id="cloud-accent0-id" transform="matrix(1,0,0,1,14.7637,11.9629)">
                        <path d="M1468.68,1207.28C1465.38,1213.99 1460.27,1223.23 1453.06,1233.26C1445.87,1243.27 1436.8,1254.05 1425.46,1263.86C1406.65,1280.14 1382.74,1293.8 1353.04,1297.17C1373.94,1289.71 1389.88,1277.11 1402.98,1263.08C1416.42,1248.67 1425.77,1232.69 1432.76,1219.03C1441.99,1201.02 1446.21,1187.24 1446.21,1187.24C1448.43,1180.76 1454.91,1176.74 1461.71,1177.64C1461.71,1177.64 1468.94,1178.35 1480.17,1179.08C1488.05,1179.59 1497.82,1180.13 1508.55,1180.21C1523.34,1180.32 1539.69,1179.85 1555.51,1176.6C1577.01,1172.18 1596.93,1163.82 1609.59,1145.84C1601.15,1168.22 1582.45,1182.84 1560.65,1192.58C1544.29,1199.89 1526.42,1203.88 1510.14,1206.02C1498.46,1207.56 1487.69,1207.86 1479.02,1207.73C1475.12,1207.67 1471.63,1207.5 1468.68,1207.28Z" style="fill:rgb(254,184,63);"/>
                    </g>
                </g>
            </g>
            <g id="dream-kid-id">
                <g id="l-leg-id">
                    <path d="M1119.49,635.879C1119.49,635.879 1133.45,776.075 1133.45,776.075C1128.34,765.985 1114.05,769.243 1108.11,782.704L1074.61,658.776C1084.5,644.131 1102.61,635.29 1119.49,635.879Z" style="fill:rgb(153,87,0);"/>
                    <path d="M1119.49,635.879C1119.49,635.879 1122.98,635.532 1122.98,635.532C1122.98,635.532 1127.04,680.655 1130.65,719.72C1133.41,749.542 1135.92,775.829 1135.92,775.829C1136.03,777.018 1135.29,778.122 1134.14,778.457C1133,778.791 1131.77,778.261 1131.23,777.196C1129.02,772.791 1124.54,771.707 1120.22,773.371C1116.35,774.864 1112.63,778.414 1110.3,783.673C1109.89,784.602 1108.94,785.172 1107.93,785.094C1106.91,785.017 1106.06,784.31 1105.79,783.33C1105.79,783.33 1099.51,760.103 1092.27,733.792C1082.78,699.329 1071.67,659.571 1071.67,659.571C1071.44,658.717 1071.59,657.804 1072.09,657.071C1077.22,649.336 1084.5,643.101 1092.72,638.824C1101.09,634.462 1110.45,632.166 1119.49,632.379L1119.62,632.381L1119.49,635.879ZM1116.35,639.351C1109.34,639.534 1102.19,641.393 1095.68,644.642C1088.75,648.103 1082.51,653.122 1077.92,659.382C1079.84,666.742 1089,701.741 1097.15,732.474C1102.08,751.043 1106.64,768.052 1108.92,776.495C1112.62,771.425 1117.58,768.502 1122.22,767.869C1125.07,767.48 1127.84,767.908 1130.24,769.209C1129.22,759.419 1127.26,740.671 1125.08,720.274C1121.58,687.38 1117.53,650.201 1116.35,639.351ZM1119.49,635.879L1119.48,636.225L1119.49,636.225L1119.49,635.879Z"/>
                </g>
                <g id="r-leg-id">
                    <path d="M983.681,676.603C972.492,711.151 957.797,750.933 940.956,784.783C934.427,780.274 926.986,778.917 917.453,784.783L934.255,674.358C950.139,665.849 967.853,668.118 983.681,676.603Z" style="fill:rgb(153,87,0);"/>
                    <path d="M983.681,676.603L985.335,673.518C977.01,669.137 968.206,666.385 959.41,665.826C950.359,665.25 941.311,666.961 932.783,671.609C931.917,672.073 931.32,672.917 931.172,673.889L914.888,784.393C914.736,785.392 915.177,786.388 916.02,786.946C916.862,787.504 917.952,787.523 918.813,786.993C922.661,784.632 926.11,783.547 929.288,783.491C933.034,783.426 936.355,784.81 939.452,786.961C940.084,787.398 940.874,787.538 941.618,787.346C942.361,787.155 942.984,786.65 943.326,785.962C951.804,769.166 959.732,750.894 967.023,732.54C974.439,713.871 981.192,695.119 987.011,677.682L983.681,676.603ZM979.459,678.353C972.834,675.077 965.901,672.961 958.942,672.415C951.558,671.836 944.152,673.014 937.088,676.421L920.809,780.131C923.78,778.895 926.564,778.324 929.186,778.267C933.027,778.184 936.552,779.204 939.853,781.001C947.59,764.981 954.86,747.731 961.461,730.378C968.175,712.728 974.194,694.974 979.459,678.353Z"/>
                </g>
                <g id="r-shoe-id">
                    <path d="M911.993,787.788L916.252,783.488L916.527,783.279C921.156,780.366 925.352,779.101 929.2,778.987C933.925,778.847 938.161,780.457 942.104,783.121C942.514,783.404 942.804,783.828 942.92,784.312L943.903,788.384C944.456,788.807 944.96,789.258 945.423,789.735C946.104,790.436 946.686,791.202 947.185,792.036L947.338,792.359C949.605,798.202 951.015,799.858 951.799,801.493C952.392,802.729 952.729,803.947 952.821,806.341L956.544,817.15C956.72,817.678 956.706,818.251 956.504,818.771L953.088,827.893L953.206,837.711C953.206,837.993 953.161,838.273 953.072,838.541C951.517,843.442 948.98,847.878 945.819,851.946C942.219,856.579 933.975,858.458 932.99,864.454C932.826,865.452 932.744,866.062 932.723,866.389C931.897,867.012 931.06,867.622 930.219,868.222C929.719,868.569 929.156,868.812 928.561,868.937C924,869.918 919.438,870.139 914.876,869.466C910.556,868.829 906.236,867.381 901.919,864.997C901.519,864.775 901.154,864.495 900.836,864.166C893.753,856.762 887.591,848.52 884.591,841.726C881.738,835.263 881.768,829.798 884.035,826.75C884.732,825.818 884.211,824.854 883.986,823.907C883.712,822.752 883.439,821.607 883.397,820.475C883.347,819.15 883.469,817.838 884.055,816.557C884.582,815.403 885.309,814.277 886.249,813.228C887.582,811.74 889.272,810.335 890.873,808.952C892.168,807.833 893.458,806.812 894.055,805.591C897.246,799.124 897.386,796.706 900.781,793.967C902.804,792.336 906.019,790.569 911.993,787.788ZM932.992,866.185C933.516,864.73 934.52,860.972 933.747,865.609C933.727,865.727 933.557,865.755 933.462,865.828L932.992,866.185C932.808,866.701 932.684,866.928 932.723,866.389L932.992,866.185ZM939.156,786C936.141,783.997 932.903,782.738 929.274,782.772C926.021,782.803 922.478,783.849 918.529,786.2L914.234,790.366L913.787,790.705C908.455,793.855 905.592,795.737 903.869,797.432C901.231,800.026 901.598,802.203 899.443,807.928C899.019,809.042 898.303,810.121 897.443,811.204C895.345,813.848 891.769,816.315 890.735,819.253C890.626,819.562 890.785,819.86 890.849,820.166C890.95,820.651 891.129,821.126 891.289,821.612C891.714,822.909 892.097,824.228 892.23,825.554C892.422,827.472 892.024,829.388 890.755,831.381C890.575,831.662 890.728,832.041 890.763,832.46C890.828,833.241 891.1,834.089 891.426,835.025C892.334,837.639 894.039,840.645 896.191,843.865C899.098,848.213 902.837,852.885 907.001,857.23C910.081,858.864 913.161,859.882 916.247,860.355C919.44,860.845 922.636,860.76 925.837,860.183L926.516,859.714L927.217,859.221C923.982,858.746 925.5,858.783 927.677,858.892L927.256,859.194L927.217,859.221L929.192,859.495C929.481,859.534 929.685,859.239 929.905,859.008C929.189,858.972 928.397,858.928 927.677,858.892L927.99,858.667C928.103,858.586 928.19,858.404 928.328,858.422L930.288,858.69C933.472,856.319 936.491,853.763 939.154,850.951C942.97,846.921 946.078,842.398 947.933,837.241L948.052,827.452C948.052,827.141 948.109,826.832 948.222,826.541L951.734,817.813L948.415,807.475C948.342,807.257 948.303,807.028 948.3,806.797C948.288,805.076 948.159,804.227 947.771,803.375C947.004,801.689 945.618,799.962 943.44,794.032C943.141,793.524 942.792,793.055 942.387,792.62C941.946,792.147 941.446,791.709 940.882,791.304C940.444,790.997 940.142,790.532 940.039,790.007C940.039,790.007 940.039,790.007 940.049,790.055L939.156,786Z"/>
                    <path d="M912.994,789.198C914.39,787.715 915.877,786.244 917.453,784.783C926.986,778.917 934.427,780.274 940.956,784.783C941.339,786.378 941.713,787.988 942.07,789.61L942.07,789.61C943.471,790.593 944.556,791.736 945.356,793.105C949.045,802.909 950.473,801.188 950.567,806.759L954.275,817.905L950.567,827.452L950.567,837.711C946.849,848.922 937.688,857.495 927.622,864.479C919.792,866.129 911.971,865.28 904.162,860.951C892.531,848.918 883.694,834.436 887.395,829.065C890.014,825.265 885.931,821.534 887.395,817.905C889.052,813.797 895.103,810.555 896.749,806.759C901.049,796.847 898.178,796.993 912.994,789.198Z"/>
                </g>
                <path id="r-sole-id" d="M912.994,789.198C894.196,809.148 891.678,831.053 905.617,854.934C914.701,847.539 920.963,849.102 925.879,854.934C949.038,839.236 947.275,813.254 942.07,789.61C943.471,790.593 944.556,791.736 945.356,793.105C949.045,802.909 950.473,801.188 950.567,806.759L954.275,817.905L950.567,827.452L950.567,837.711C946.849,848.922 937.688,857.495 927.622,864.479C919.792,866.129 911.971,865.28 904.162,860.951C892.531,848.918 883.694,834.436 887.395,829.065C890.014,825.265 885.931,821.534 887.395,817.905C889.052,813.797 895.103,810.555 896.749,806.759C901.049,796.847 898.178,796.993 912.994,789.198" style="fill:white;"/>
                <g id="l-shoe-id">
                    <path d="M1133.45,776.075C1150.96,787.632 1159.34,810.081 1164.54,826.411C1164.54,826.411 1174.11,846.798 1173.28,853.153C1172.44,859.558 1157.09,860.769 1150.88,860.168C1139.61,856.696 1127.72,852.399 1119.21,846.395L1115.66,837.387L1105.4,833.942L1101.98,827.462C1093.96,822.372 1083.47,814.231 1081.06,803.823L1092.86,799.053C1093.36,797.423 1095.97,791.678 1108.11,782.704C1114.05,769.243 1128.34,765.985 1133.45,776.075Z"/>
                    <path d="M1103.31,779.068C1107.42,769.984 1114.91,764.969 1121.68,763.822C1128.31,762.698 1134.57,765.162 1138.67,771.252C1145.37,776.385 1150.76,782.902 1155.06,790.103C1161.84,801.464 1166.05,814.314 1169,824.838C1169.88,826.913 1173.71,836.088 1175.8,843.623C1176.93,847.737 1177.53,851.439 1177.18,853.664C1176.65,857.101 1173.89,859.964 1169.51,861.597C1163.68,863.767 1154.98,864.124 1150.55,863.619C1150.32,863.596 1150.09,863.55 1149.86,863.481C1143.18,861.368 1136.31,858.921 1129.99,856.107C1125.35,854.036 1120.99,851.775 1117.25,849.177C1116.71,848.794 1116.29,848.262 1116.05,847.645L1113.01,840.27L1104.21,837.495C1103.3,837.189 1102.54,836.544 1102.09,835.694L1099.08,830.244C1094.04,827.152 1088.27,822.983 1083.77,817.939C1080.33,814.088 1077.7,809.693 1076.45,804.89C1075.92,802.622 1077.12,800.31 1079.28,799.437L1088.88,795.226C1089.71,793.509 1091.21,791.057 1093.93,787.933C1096.07,785.464 1099.09,782.509 1103.31,779.068ZM1151.52,856.738C1154.25,856.92 1158.63,856.701 1162.61,855.848C1164.45,855.455 1166.19,854.912 1167.61,854.188C1168.46,853.747 1169.29,853.396 1169.37,852.643C1169.58,850.671 1168.35,847.187 1166.97,843.505C1164.24,836.192 1160.27,828.416 1160.27,828.416L1160.05,827.844C1156.64,818.34 1152.03,806.674 1144.97,796.665C1140.84,790.818 1135.78,785.647 1129.59,781.918C1128.58,781.247 1127.75,780.323 1127.2,779.236C1126.15,776.953 1123.89,776.3 1121.66,777.078C1118.52,778.174 1115.46,780.915 1113.46,785.067C1113.05,785.996 1112.4,786.802 1111.58,787.406C1108.06,789.834 1105.35,791.98 1103.3,793.876C1099.39,797.482 1098.03,799.683 1097.73,800.553C1097.28,802.021 1096.19,803.208 1094.77,803.783L1086.94,806.684C1087.83,808.668 1089.04,810.542 1090.44,812.295C1094.36,817.178 1099.62,821.203 1104.06,824.182C1104.63,824.544 1105.1,825.049 1105.41,825.646L1108.07,830.915L1116.79,834.026C1117.78,834.359 1118.58,835.113 1118.96,836.086L1122.03,844.207C1125.19,846.379 1128.81,848.337 1132.68,850.06C1138.64,852.709 1145.18,854.834 1151.52,856.738Z"/>
                </g>
                <path id="l-sole-id" d="M1167.71,827.462C1173.77,836.628 1174.17,846.796 1173.33,853.201C1172.49,859.606 1157.09,860.769 1150.88,860.168C1139.61,856.696 1127.72,852.399 1119.21,846.395L1115.66,837.387L1105.4,833.942L1101.98,827.462C1093.96,822.372 1083.47,814.231 1081.06,803.823L1092.86,799.053C1097.76,803.456 1097.76,803.456 1100.77,806.579L1107.02,819.14L1119.21,827.462C1123.71,842.123 1144.49,849.609 1158.8,855.071C1162.14,854.939 1167.64,844.454 1169.59,846.395C1175.21,852.022 1168.65,830.401 1167.71,827.462Z" style="fill:white;"/>
                <g id="shorts-id">
                    <path d="M932.255,566.304L932.291,566.271C958.345,543.708 984.72,527.955 1011.42,519.759C1041.46,510.538 1071.93,510.847 1102.88,521.815C1103.85,522.161 1104.58,522.984 1104.8,523.993L1129.66,636.091C1129.88,637.086 1129.59,638.124 1128.87,638.848C1128.15,639.573 1127.12,639.886 1126.12,639.678C1125.02,639.448 1123.9,639.268 1122.78,639.135C1121.66,639.002 1120.53,638.916 1119.39,638.877C1111.36,638.597 1103.04,640.595 1095.56,644.405C1088.23,648.141 1081.71,653.623 1077.1,660.455C1076.1,661.932 1075.19,663.472 1074.39,665.071C1073.59,666.653 1072.89,668.291 1072.3,669.984C1071.92,671.081 1070.94,671.858 1069.78,671.98C1068.63,672.102 1067.51,671.546 1066.9,670.554C1059.08,657.677 1052.86,641.59 1042.83,623.805C1038.42,615.972 1033.26,607.805 1026.87,599.438L996.04,683.653C995.717,684.537 994.996,685.219 994.095,685.492C993.194,685.766 992.216,685.601 991.455,685.046C989.98,683.97 988.478,682.948 986.953,681.984C985.412,681.01 983.848,680.096 982.264,679.247C974.793,675.242 966.886,672.676 958.963,672.113C951.062,671.552 943.149,672.996 935.672,677.002C934.761,677.49 933.857,678.016 932.961,678.58C932.085,679.131 931.216,679.719 930.355,680.344C929.42,681.023 928.177,681.105 927.161,680.553C926.145,680.002 925.536,678.916 925.596,677.762L931.259,568.384L931.263,568.336L931.264,568.324L931.265,568.306L931.271,568.23L931.277,568.187L931.277,568.181L931.279,568.169L931.291,568.079L931.298,568.037C931.331,567.844 931.381,567.658 931.448,567.481L931.495,567.364L931.501,567.35L931.502,567.346L931.519,567.311L931.555,567.23L931.559,567.222L931.563,567.214L931.604,567.136L931.622,567.101L931.624,567.097L931.631,567.084L931.695,566.975C931.794,566.813 931.909,566.659 932.041,566.515L932.07,566.484L932.134,566.419L932.142,566.41L932.146,566.406L932.177,566.375L932.234,566.324L932.247,566.311L932.255,566.304ZM1099.31,526.926C1070.17,516.946 1041.48,516.809 1013.18,525.495C987.531,533.368 962.221,548.463 937.185,569.975L931.89,672.236C932.205,672.057 932.521,671.883 932.839,671.713C941.363,667.147 950.381,665.489 959.388,666.128C968.126,666.749 976.858,669.542 985.098,673.959C986.808,674.875 988.496,675.861 990.158,676.912C990.689,677.247 991.217,677.589 991.743,677.938L1023.08,592.319C1023.45,591.304 1024.34,590.568 1025.41,590.391C1026.47,590.214 1027.55,590.624 1028.23,591.465C1036.41,601.585 1042.76,611.456 1048.06,620.859C1056.75,636.28 1062.57,650.424 1069.07,662.291C1069.98,660.492 1071,658.76 1072.13,657.097C1077.31,649.428 1084.61,643.254 1092.84,639.06C1101.23,634.782 1110.58,632.566 1119.6,632.88C1120.69,632.918 1121.78,632.993 1122.86,633.107L1099.31,526.926Z"/>
                    <path d="M934.255,568.539L928.592,677.917C930.449,676.568 932.339,675.384 934.255,674.358C950.139,665.849 967.853,668.118 983.681,676.603C986.953,678.357 990.145,680.377 993.223,682.622L1025.9,593.35C1049.4,622.437 1057.59,649.432 1069.47,668.997C1070.74,665.345 1072.49,661.926 1074.61,658.776C1084.5,644.131 1102.61,635.29 1119.49,635.879C1121.94,635.964 1124.37,636.248 1126.74,636.741L1101.87,524.643C1044.42,504.282 988.666,521.418 934.255,568.539"/>
                </g>
                <g id="l-arm-id">
                    <path d="M1110.27,430.294C1138.62,434.587 1173.21,417.35 1205.24,394.751C1205.24,394.751 1225.44,386.781 1231.05,381.023C1261.39,349.861 1231.05,320.034 1205.24,346.53C1200.61,351.287 1191.96,373.356 1191.96,373.356L1111.76,394.218C1114.52,407.907 1114.46,420.17 1110.27,430.294Z" style="fill:rgb(153,87,0);"/>
                    <path d="M1110.27,430.294L1108.61,429.604C1110.74,424.408 1111.72,418.631 1111.78,412.379C1111.84,406.801 1111.15,400.851 1109.87,394.598C1109.67,393.596 1110.29,392.611 1111.28,392.354L1190.31,371.501C1191.49,368.531 1195.01,359.834 1198.44,353.1C1200.28,349.477 1202.13,346.412 1203.58,344.912C1218.86,329.104 1235.7,331.984 1242.76,342.777C1248.69,351.851 1248.04,367.231 1232.94,382.87C1230.84,385.042 1226.85,387.551 1222.52,389.844C1215.77,393.417 1208.21,396.536 1206.58,397.199C1188.67,409.93 1169.96,420.966 1151.97,427.567C1137.18,432.992 1122.85,435.412 1109.79,433.494L1110.27,433.494L1110.27,430.294ZM1113.24,427.421C1124.66,428.665 1137.08,426.407 1149.9,421.835C1167.58,415.525 1186,404.819 1203.64,392.487C1203.83,392.36 1204.02,392.254 1204.23,392.173C1204.23,392.173 1212.62,388.905 1220.02,385.067C1223.79,383.111 1227.32,381.043 1229.15,379.177C1242.07,366.021 1243.58,353.202 1238.61,345.466C1232.95,336.668 1219.39,335.422 1206.9,348.149C1205.3,349.783 1203.23,353.637 1201.19,357.823C1197.48,365.43 1194.02,374.164 1194.02,374.164C1193.76,374.823 1193.2,375.319 1192.51,375.497L1113.99,395.635C1115.32,402.94 1115.83,409.83 1115.34,416.198C1115.04,420.145 1114.35,423.893 1113.24,427.421Z"/>
                </g>
                <g id="r-arm-id">
                    <path d="M881.428,480.778C870.666,474.231 865.28,464.532 864.362,452.215L758.378,465.358L739.39,442.149C734.875,445.472 732.962,449.652 736.775,455.714C742.875,461.521 737.249,459.514 739.39,463.977C739.839,464.912 724.401,465.358 712.731,467.91C683.746,474.249 700.92,526.084 752.69,495.758C796.387,500.449 845.644,497.691 881.428,480.778Z" style="fill:rgb(153,87,0);"/>
                    <path d="M737.423,459.701C737.116,459.285 736.358,458.314 735.276,457.289C735.145,457.164 735.03,457.024 734.934,456.872C732.761,453.433 732.224,450.465 732.716,447.896C733.272,444.997 735.192,442.509 738.084,440.374C739.029,439.678 740.353,439.845 741.096,440.753L759.329,462.974L864.07,449.856C864.715,449.776 865.365,449.964 865.868,450.376C866.372,450.789 866.684,451.389 866.732,452.038C867.17,457.825 868.644,462.999 871.293,467.486C873.912,471.923 877.681,475.679 882.684,478.714L883.247,478.714C884.347,479.176 884.991,480.017 884.923,480.905C884.855,481.792 884.088,482.583 882.924,482.962L882.924,483.942C864.125,492.616 841.751,497.486 818.4,499.433C796.786,501.235 774.34,500.554 753.174,498.13C733.148,509.433 718.155,508.882 708.802,503.664C698.824,498.097 695.118,487.228 697.898,478.524C699.743,472.747 704.387,467.812 712.299,465.933C720.985,463.987 731.753,463.179 736.583,462.523L736.782,462.494C736.694,461.127 737.149,460.153 737.423,459.701ZM739.087,445.264C738.024,446.294 737.275,447.421 737.019,448.73C736.7,450.356 737.174,452.187 738.49,454.349C740.909,456.701 741.633,458.127 741.812,459.028C741.998,459.966 741.821,460.682 741.484,461.351C741.302,461.713 740.835,462.004 741.332,463.045C741.763,463.949 741.899,465.253 740.214,466.097C739.79,466.309 738.721,466.58 737.145,466.782C732.378,467.395 721.749,468.056 713.164,469.888C706.725,471.176 702.668,474.925 701.132,479.574C698.747,486.795 702.263,495.806 710.642,500.301C719.338,504.966 733.151,504.746 751.526,493.771L752.935,493.468C774.018,495.539 796.384,495.857 817.867,493.67C838.603,491.559 858.506,487.111 875.582,479.618C872.084,476.79 869.294,473.546 867.163,469.918C864.551,465.471 862.928,460.441 862.236,454.87L758.654,467.588C757.888,467.683 757.127,467.379 756.638,466.781L739.087,445.264Z"/>
                </g>
                <g id="neck-id">
                    <path d="M981.147,344.453C979.22,346.578 977.105,348.581 974.805,350.439C965.051,358.315 953.446,362.375 941.803,362.81L941.803,378.327C958.996,371.704 974.267,369.178 988.938,365.946L981.147,344.453Z" style="fill:rgb(153,87,0);"/>
                    <path d="M982.7,343.89C982.503,343.346 982.034,342.944 981.466,342.832C980.897,342.72 980.312,342.914 979.923,343.344C978.937,344.341 977.905,345.3 976.829,346.231C975.773,347.145 974.673,348.018 973.531,348.862C968.796,352.39 963.66,354.968 958.351,356.751C952.918,358.577 947.297,359.506 941.681,359.548C939.927,359.614 938.539,361.055 938.539,362.81L938.308,378.327C938.308,379.479 938.875,380.557 939.825,381.209C940.775,381.861 941.984,382.003 943.059,381.589C949.349,379.085 955.393,377.199 961.216,375.527C971.094,372.69 980.377,370.585 989.457,368.302C990.135,368.152 990.716,367.718 991.051,367.109C991.386,366.501 991.442,365.778 991.205,365.125L982.7,343.89ZM980.475,347.725C980.108,348.123 979.734,348.517 979.354,348.907C978.312,349.979 977.219,351.011 976.078,352.016C971.238,356.247 965.898,359.523 960.266,361.859C955.376,363.886 950.271,365.16 945.111,365.775L945.225,373.394C950.132,371.713 954.885,370.324 959.535,369.191C968.666,366.966 977.34,365.62 985.795,364.078L980.475,347.725Z"/>
                </g>
                <path id="shirt-outline-id" d="M1111.76,394.218C1115.77,414.129 1113.85,430.996 1101.87,442.703L1074.96,436.018L1066.58,408.393L1101.87,524.643C1044.42,504.282 988.666,521.418 934.255,568.539C929.179,553.156 929.179,544.865 928.592,530.453C928.177,520.268 931.575,502.052 930.806,493.171C929.059,473.023 925.775,456.468 923.522,442.703L925.66,456.686L889.064,484.535C867.871,476.158 861.259,459.234 865.381,436.018C882.171,422.15 900.344,400.2 918.596,387.828C920.377,386.621 929.613,382.458 943.267,377.826C956.127,373.464 972.905,368.687 991.066,365.573C1004.37,363.292 1018.41,361.903 1032.2,362.223C1047.95,362.589 1107.21,395.405 1111.76,394.218Z" style="fill:none;stroke:rgb(24,0,0);stroke-width:10px;"/>
                <path id="shirt-id" d="M1111.76,394.218C1114.52,407.907 1114.46,420.17 1110.27,430.294C1108.37,434.895 1105.62,439.045 1101.87,442.703L1074.96,436.018L1066.58,408.393L1101.87,524.643C1044.42,504.282 988.666,521.418 934.255,568.539C929.179,553.156 929.179,544.865 928.592,530.453C928.177,520.268 931.575,502.052 930.806,493.171C929.059,473.023 925.775,456.468 923.522,442.703L925.66,456.686L889.064,484.535C886.268,483.43 883.725,482.176 881.428,480.778C870.666,474.231 865.28,464.532 864.362,452.215C863.991,447.232 864.35,441.822 865.381,436.018C882.171,422.15 900.344,400.2 918.596,387.828C920.377,386.621 929.613,382.458 943.267,377.826C956.127,373.464 972.905,368.687 991.066,365.573C1004.37,363.292 1018.41,361.903 1032.2,362.223C1047.95,362.589 1107.21,395.405 1111.76,394.218Z" style="fill:rgb(255,0,0);"/>
                <clipPath id="_clip1">
                    <path id="shirt-id1" serif:id="shirt-id" d="M1111.76,394.218C1114.52,407.907 1114.46,420.17 1110.27,430.294C1108.37,434.895 1105.62,439.045 1101.87,442.703L1074.96,436.018L1066.58,408.393L1101.87,524.643C1044.42,504.282 988.666,521.418 934.255,568.539C929.179,553.156 929.179,544.865 928.592,530.453C928.177,520.268 931.575,502.052 930.806,493.171C929.059,473.023 925.775,456.468 923.522,442.703L925.66,456.686L889.064,484.535C886.268,483.43 883.725,482.176 881.428,480.778C870.666,474.231 865.28,464.532 864.362,452.215C863.991,447.232 864.35,441.822 865.381,436.018C882.171,422.15 900.344,400.2 918.596,387.828C920.377,386.621 929.613,382.458 943.267,377.826C956.127,373.464 972.905,368.687 991.066,365.573C1004.37,363.292 1018.41,361.903 1032.2,362.223C1047.95,362.589 1107.21,395.405 1111.76,394.218Z"/>
                </clipPath>
                <g clip-path="url(#_clip1)">
                    <path d="M1070.62,407.332C1070.62,407.332 1073.77,419.517 1088.91,419.517C1106.83,419.517 1111.91,425.519 1111.91,425.519L1102,442.581L1077.48,433.91L1070.62,407.332Z" style="fill:rgb(177,0,0);"/>
                    <path d="M1052.49,411.102C1055.04,427.722 1051.21,431.304 1050.34,445.022C1050.14,448.18 1065.86,459.737 1056.45,471.149C1046.59,483.127 1052.49,483.127 1039.48,497.256C1043.93,495.483 1049.94,496.632 1052.49,494.959C1072.88,481.585 1041.5,499.321 1077.48,502.768C1076.16,494.612 1075.77,484.005 1073.42,471.149C1072.57,466.49 1071.46,461.536 1069.96,456.297C1066.06,442.719 1057.28,426.677 1052.49,411.102Z" style="fill:rgb(177,0,0);"/>
                </g>
                <path id="shirt-id2" serif:id="shirt-id" d="M1111.76,394.218C1114.52,407.907 1114.46,420.17 1110.27,430.294C1108.37,434.895 1105.62,439.045 1101.87,442.703L1074.96,436.018L1066.58,408.393L1101.87,524.643C1044.42,504.282 988.666,521.418 934.255,568.539C929.179,553.156 929.179,544.865 928.592,530.453C928.177,520.268 931.575,502.052 930.806,493.171C929.059,473.023 925.775,456.468 923.522,442.703L925.66,456.686L889.064,484.535C886.268,483.43 883.725,482.176 881.428,480.778C870.666,474.231 865.28,464.532 864.362,452.215C863.991,447.232 864.35,441.822 865.381,436.018C882.171,422.15 900.344,400.2 918.596,387.828C920.377,386.621 929.613,382.458 943.267,377.826C956.127,373.464 972.905,368.687 991.066,365.573C1004.37,363.292 1018.41,361.903 1032.2,362.223C1047.95,362.589 1107.21,395.405 1111.76,394.218Z" style="fill:none;stroke:black;stroke-width:7px;"/>
                <g id="head0-id">
                    <g id="face-id" transform="matrix(0.895647,-0.723223,0.723223,0.895647,-122.36,690.298)">
                        <circle cx="926.979" cy="320.468" r="48.599" style="fill:rgb(153,87,0);"/>
                        <path d="M926.979,269.02C912.839,269.176 900.09,275.028 890.904,284.393C881.784,293.69 876.15,306.43 876.266,320.468C876.323,334.442 882.058,347.058 891.235,356.212C900.404,365.356 913.019,371.062 926.979,371.082C940.969,371.141 953.656,365.498 962.876,356.365C972.128,347.199 977.878,334.507 977.951,320.468C978.035,306.371 972.365,293.577 963.175,284.272C953.943,274.924 941.142,269.113 926.979,269.02ZM926.979,274.718C939.638,274.635 951.143,279.697 959.498,287.949C967.898,296.244 973.13,307.743 973.205,320.468C973.271,333.252 968.144,344.863 959.798,353.288C951.42,361.745 939.812,366.998 926.979,367.053C914.116,367.071 902.432,361.889 894.006,353.441C885.589,345.002 880.441,333.318 880.493,320.468C880.599,307.683 885.871,296.133 894.338,287.827C902.738,279.588 914.295,274.578 926.979,274.718Z"/>
                    </g>
                    <path id="face-glare" d="M983.782,288.154C985.4,293.291 986.155,298.478 986.328,303.645C986.444,307.112 986.228,310.548 985.801,313.971C985.377,317.382 984.754,320.769 983.777,324.114C982.339,329.043 980.307,333.874 977.434,338.477C980.884,334.168 983.642,329.581 985.541,324.715C986.862,321.33 987.816,317.837 988.268,314.282C988.723,310.713 988.679,307.089 988.243,303.497C987.61,298.273 986.047,293.145 983.782,288.154Z" style="fill:white;"/>
                    <g id="mouth-0-id" transform="matrix(1,0,0,1,6.96025,-0.61363)">
                        <path d="M934.849,341.418C940.117,340.355 944.911,338.569 949.204,336.106C953.689,333.533 957.628,330.221 960.984,326.208C962.046,324.938 961.878,323.045 960.608,321.983C959.338,320.92 957.444,321.089 956.382,322.359C953.486,325.822 950.088,328.682 946.218,330.902C942.465,333.055 938.269,334.607 933.662,335.536C932.039,335.864 930.987,337.447 931.315,339.07C931.642,340.693 933.225,341.745 934.849,341.418Z"/>
                    </g>
                    <g id="r-eye-closed-id" transform="matrix(-0.835804,0.549027,0.549027,0.835804,1551.46,-467.94)">
                        <path d="M951.848,298.357C957.301,296.473 962.552,296.296 967.513,299.183" style="fill:none;stroke:black;stroke-width:3.12px;"/>
                    </g>
                    <g id="r-brow-id" transform="matrix(-0.19869,0.980062,0.980062,0.19869,794.256,-648.033)">
                        <path d="M897.3,308.216C899.237,304.207 901.927,300.151 905.761,296.64C908.99,293.683 913.029,291.109 918.128,289.289C919.687,288.732 921.405,289.546 921.962,291.105C922.519,292.665 921.705,294.382 920.145,294.939C915.889,296.459 912.509,298.596 909.813,301.065C906.584,304.022 904.334,307.449 902.703,310.826C901.982,312.317 900.187,312.943 898.696,312.222C897.206,311.502 896.58,309.707 897.3,308.216Z"/>
                    </g>
                    <g id="l-eye-closed-id" transform="matrix(0.893374,-0.449314,0.449314,0.893374,-37.2883,449.327)">
                        <path d="M951.848,298.357C957.301,296.473 962.552,296.296 967.513,299.183" style="fill:none;stroke:black;stroke-width:3.12px;"/>
                    </g>
                    <g id="l-brow-id" transform="matrix(0.948104,0.317961,-0.317961,0.948104,185.35,-296.481)">
                        <path d="M902.703,310.826C904.334,307.449 906.584,304.022 909.813,301.065C912.509,298.596 915.889,296.459 920.145,294.939C921.705,294.382 922.519,292.665 921.962,291.105C921.405,289.546 919.687,288.732 918.128,289.289C913.029,291.109 908.99,293.683 905.761,296.64C901.927,300.151 899.237,304.207 897.3,308.216C896.58,309.707 897.206,311.502 898.696,312.222C900.187,312.943 901.982,312.317 902.703,310.826Z"/>
                    </g>
                    <g id="nose-id" transform="matrix(1,0,0,1,1.84079,-1.06368)">
                        <path d="M938.179,322.522C940.559,321.938 942.752,321.072 944.744,319.905C946.802,318.7 948.647,317.175 950.259,315.298C951.337,314.042 951.193,312.146 949.937,311.068C948.681,309.989 946.786,310.133 945.707,311.389C944.539,312.749 943.203,313.854 941.712,314.728C940.208,315.609 938.547,316.254 936.75,316.694C935.142,317.089 934.156,318.714 934.551,320.323C934.945,321.931 936.571,322.916 938.179,322.522Z"/>
                    </g>
                    <path id="hair-id" d="M983.184,271.764C983.184,271.764 989.154,269.121 992.113,263.384C997.923,252.118 993.693,235.757 971.026,235.213C959.989,213.188 944.38,211.55 925.864,222.875C894.987,216.228 874.307,223.079 869.518,250.965C849.444,259.476 845.593,272.54 848.817,287.59C838.163,307.628 845.541,321.276 861.319,331.947C868.153,351.764 883.718,351.958 896.129,342.06C876.73,318.036 880.485,282.783 904.509,263.384C928.532,243.985 963.786,247.74 983.184,271.764Z"/>
                    <path id="hair-glare-id" d="M924.707,230.828C931.131,225.456 940.485,222 949.097,222.977C957.275,223.905 964.846,228.66 968.4,239.453C975.161,239.695 980.676,241.503 984.352,244.973C988.202,248.607 990.057,254.053 989.087,261.445C989.534,254.269 987.498,249.119 983.562,245.868C979.772,242.738 974.235,241.423 967.565,241.745C967.061,241.753 966.61,241.434 966.449,240.956C962.879,231.304 956.068,227.254 948.763,226.813C940.831,226.333 932.375,230.076 927.066,235.457C926.412,236.091 925.467,236.322 924.594,236.062C911.508,232.37 902.057,233.022 895.506,236.629C891.261,238.967 888.336,242.574 886.455,246.955C884.624,251.219 883.734,256.178 883.674,261.445C883.674,262.898 882.559,264.109 881.111,264.229C873.121,264.742 867.741,268.407 864.793,273.721C861.673,279.347 861.137,286.656 862.9,293.9C863.003,294.285 862.979,294.693 862.832,295.063C860.184,301.213 858.447,306.383 858.962,311.062C859.474,315.711 862.224,319.799 868.329,323.871C868.529,323.996 868.668,324.2 868.71,324.433C869.413,329.032 870.994,332.947 873.915,335.85C876.594,338.513 880.368,340.328 885.577,341.068C880.202,340.668 876.228,339.04 873.315,336.494C870.112,333.693 868.201,329.78 867.142,325.122C860.233,321.023 857.113,316.544 856.251,311.44C855.418,306.511 856.788,300.924 859.178,294.313C856.918,286.233 857.33,277.994 860.581,271.5C863.716,265.236 869.479,260.554 878.112,259.014C878.279,253.824 879.189,248.924 880.976,244.637C883.334,238.976 887.179,234.34 892.682,231.413C900.023,227.506 910.505,226.632 924.707,230.828Z" style="fill:white;"/>
                </g>
                <path id="flash-body-id" d="M609.195,330.031C634.364,309.11 667.783,311.6 697.398,323.22L725.975,362.177L728.59,385.906L657.296,397.515L657.296,367.722C639.607,358.027 628.349,357.213 617.279,356.657C613.351,351.876 610.689,342.89 609.195,330.031Z" style="fill:rgb(76,76,76);stroke:black;stroke-width:7px;stroke-miterlimit:3;"/>
                <g id="flash-bulb-id" transform="matrix(0.96668,-0.255989,0.255989,0.96668,-69.484,171.663)">
                    <path d="M657.3,335.376C657.3,331.972 654.536,329.209 651.132,329.209L624.525,329.209C621.121,329.209 618.357,331.972 618.357,335.376L618.357,347.711C618.357,351.115 621.121,353.879 624.525,353.879L651.132,353.879C654.536,353.879 657.3,351.115 657.3,347.711L657.3,335.376Z" style="fill:none;stroke:black;stroke-width:7px;stroke-miterlimit:3;"/>
                    <path d="M657.3,335.376C657.3,331.972 654.536,329.209 651.132,329.209L624.525,329.209C621.121,329.209 618.357,331.972 618.357,335.376L618.357,347.711C618.357,351.115 621.121,353.879 624.525,353.879L651.132,353.879C654.536,353.879 657.3,351.115 657.3,347.711L657.3,335.376Z" style="fill:white;"/>
                </g>
                <g id="camera-body-id" transform="matrix(1.20893,-0.155625,0.148676,1.15495,-223.877,35.69)">
                    <path d="M771.435,439.704C771.435,420.434 756.488,404.788 738.078,404.788L663.697,404.788C645.287,404.788 630.34,420.434 630.34,439.704L630.34,509.537C630.34,528.807 645.287,544.453 663.697,544.453L738.078,544.453C756.488,544.453 771.435,528.807 771.435,509.537L771.435,439.704Z" style="fill:rgb(76,76,76);stroke:black;stroke-width:5.87px;stroke-miterlimit:3;"/>
                </g>
                <path d="M733.132,400.393C729.66,400.615 716.559,401.446 704.974,402.1C694.665,402.682 685.597,403.112 685.597,403.112C685.284,403.144 685.003,402.917 684.97,402.603C684.938,402.29 685.165,402.009 685.479,401.977C685.479,401.977 694.44,400.525 704.647,398.965C718.005,396.925 733.424,394.694 733.424,394.694C733.928,394.641 734.438,394.725 734.899,394.936C742.078,397.992 747.597,402.53 751.838,408.267C754.594,411.994 756.801,416.24 758.549,420.895C759.663,423.865 760.584,427.01 761.336,430.299C762.904,437.148 763.806,444.613 764.411,452.471C764.879,458.57 765.151,464.893 765.406,471.364C765.769,480.596 766.059,490.07 766.894,499.555C766.937,499.867 766.719,500.155 766.407,500.198C766.095,500.241 765.807,500.023 765.764,499.711C763.995,490.317 762.694,480.891 761.5,471.694C760.672,465.318 759.882,459.087 758.991,453.081C757.878,445.574 756.559,438.47 754.778,431.944C753.961,428.952 753.047,426.087 752.014,423.36C750.469,419.285 748.637,415.535 746.338,412.184C743.018,407.345 738.794,403.298 733.132,400.393Z"/>
                <g id="mag-chamber-base-id" transform="matrix(0.792279,0,0,0.522112,366.642,231.218)">
                    <path d="M248.583,597.841C217.824,597.36 192.913,525.427 192.913,449.397C192.913,373.069 218.02,297.323 248.945,297.322C284.449,294.244 317.141,311.437 352.439,321.512L352.439,321.512C381.648,333.569 402.504,378.499 402.504,452.895C402.504,527.292 381.499,579.237 352.439,585.691C316.383,593.697 281.869,604.55 248.945,597.844L248.583,597.841Z" style="stroke:black;stroke-width:10.43px;stroke-miterlimit:3;"/>
                </g>
                <g id="mag-chamber0-id" transform="matrix(0.994874,0,0,0.655622,229.899,167.485)">
                    <path d="M248.583,597.841C217.824,597.36 192.913,525.427 192.913,449.397C192.913,373.069 218.02,297.323 248.945,297.322C284.449,294.244 317.141,311.437 352.439,321.512L352.439,321.512C381.648,333.569 402.504,378.499 402.504,452.895C402.504,527.292 381.499,579.237 352.439,585.691C316.383,593.697 281.869,604.55 248.945,597.844L248.583,597.841Z" style="fill:rgb(76,76,76);stroke:black;stroke-width:8.31px;stroke-miterlimit:3;"/>
                </g>
                <g id="mag-chamber1-id" transform="matrix(1.50823,0,0,0.878604,-62.565,57.7195)">
                    <path d="M248.583,597.841C217.824,597.36 192.913,525.427 192.913,449.397C192.913,373.069 218.02,297.323 248.945,297.322C284.449,294.244 317.141,315.99 352.439,326.064L352.439,326.064C381.648,338.121 402.504,378.499 402.504,452.895C402.504,527.292 381.499,579.237 352.439,585.691C316.383,593.697 281.869,604.55 248.945,597.844L248.583,597.841Z" style="fill:rgb(76,76,76);stroke:black;stroke-width:5.67px;stroke-miterlimit:3;"/>
                </g>
                <path id="chamber-nozzle-id" d="M248.583,587.691C217.824,587.209 192.913,525.427 192.913,449.397C192.913,373.069 218.02,311.101 248.945,311.1C284.449,308.022 317.141,308.022 352.439,318.097L352.439,318.097C381.648,330.154 408.471,378.499 408.471,452.895C408.471,527.292 381.499,579.237 352.439,585.691C316.383,593.697 281.869,594.4 248.945,587.693L248.583,587.691Z" style="fill:rgb(76,76,76);"/>
                <clipPath id="_clip2">
                    <path id="chamber-nozzle-id1" serif:id="chamber-nozzle-id" d="M248.583,587.691C217.824,587.209 192.913,525.427 192.913,449.397C192.913,373.069 218.02,311.101 248.945,311.1C284.449,308.022 317.141,308.022 352.439,318.097L352.439,318.097C381.648,330.154 408.471,378.499 408.471,452.895C408.471,527.292 381.499,579.237 352.439,585.691C316.383,593.697 281.869,594.4 248.945,587.693L248.583,587.691Z"/>
                </clipPath>
                <g clip-path="url(#_clip2)">
                    <g id="chamber-nozzle-outline-id" transform="matrix(1.6465,0,0,1.06676,-203.395,-19.1607)">
                        <ellipse cx="274.728" cy="439.234" rx="34.031" ry="129.642"/>
                        <path d="M274.728,299.749C265.054,300.455 255.681,312.164 249.236,333.841C241.814,358.799 237.378,396.794 238.526,439.234C239.183,473.544 243.371,504.506 249.367,527.656C255.952,553.086 264.831,569.075 274.728,568.904C284.633,569.107 293.563,553.146 300.166,527.701C306.174,504.549 310.331,473.557 310.974,439.234C312.114,396.786 307.673,358.781 300.241,333.824C293.786,312.148 284.404,300.443 274.728,299.749ZM274.728,319.435C277.98,319.201 281.098,321.68 284.047,326.09C288.246,332.37 292.121,341.747 295.383,353.544C301.543,375.824 305.667,405.911 306.544,439.234C307.177,473.021 304.453,503.965 299.166,527.121C293.333,552.671 284.517,568.647 274.728,568.848C264.93,568.678 256.062,552.729 250.212,527.165C244.913,504.005 242.22,473.036 242.868,439.234C243.761,405.905 247.917,375.832 254.073,353.544C257.333,341.742 261.182,332.333 265.384,326.054C268.338,321.639 271.472,319.19 274.728,319.435Z"/>
                    </g>
                </g>
                <path id="chamber-nozzle-id2" serif:id="chamber-nozzle-id" d="M248.583,587.691C217.824,587.209 192.913,525.427 192.913,449.397C192.913,373.069 218.02,311.101 248.945,311.1C284.449,308.022 317.141,308.022 352.439,318.097L352.439,318.097C381.648,330.154 408.471,378.499 408.471,452.895C408.471,527.292 381.499,579.237 352.439,585.691C316.383,593.697 281.869,594.4 248.945,587.693L248.583,587.691Z" style="fill:none;stroke:black;stroke-width:7px;stroke-miterlimit:3;"/>
                <g id="camera-lens-id" transform="matrix(1.6465,0,0,1.06676,-203.395,-19.1607)">
                    <ellipse cx="274.728" cy="439.234" rx="34.031" ry="129.642"/>
                    <clipPath id="_clip3">
                        <ellipse cx="274.728" cy="439.234" rx="34.031" ry="129.642"/>
                    </clipPath>
                    <g clip-path="url(#_clip3)">
                        <g transform="matrix(0.607348,0,0,0.937418,116.851,28.2731)">
                            <path d="M227.209,339.473C227.209,339.473 231.789,364.11 238.11,395.442C239.321,401.446 240.623,407.684 241.992,414.039C243.31,420.154 244.673,426.376 246.114,432.581C249.053,445.23 252.173,457.835 255.063,469.497C262.744,500.484 269.059,524.737 269.059,524.737C269.272,525.646 270.184,526.21 271.092,525.996C272.001,525.783 272.565,524.871 272.351,523.963C272.351,523.963 267.189,499.438 260.249,468.277C257.637,456.55 254.809,443.875 251.8,431.243C250.324,425.046 248.769,418.87 247.222,412.809C245.614,406.509 243.998,400.346 242.405,394.431C234.094,363.567 227.209,339.473 227.209,339.473Z" style="fill:white;"/>
                        </g>
                        <g transform="matrix(0.607348,0,0,0.937418,116.851,28.2731)">
                            <path d="M210.879,390.748C210.879,390.748 214.742,412.08 220.152,439.214C221.189,444.412 222.308,449.81 223.492,455.31C224.631,460.601 225.811,465.984 227.071,471.349C229.639,482.288 232.387,493.182 234.934,503.26C241.703,530.042 247.3,550.99 247.3,550.99C247.516,551.898 248.429,552.46 249.337,552.243C250.245,552.027 250.807,551.114 250.59,550.206C250.59,550.206 246.145,528.984 240.116,502.026C237.848,491.881 235.391,480.918 232.753,469.996C231.459,464.639 230.086,459.302 228.718,454.066C227.296,448.622 225.863,443.299 224.445,438.192C217.045,411.531 210.879,390.748 210.879,390.748Z" style="fill:white;"/>
                        </g>
                        <g id="inner-lens-id" transform="matrix(5.22257,-0.0431532,0.0193218,5.57071,-1197.13,-1806.85)">
                            <ellipse cx="285.21" cy="405.405" rx="3.684" ry="14.657" style="fill:white;"/>
                        </g>
                    </g>
                    <path d="M274.728,306.311C270.581,306.415 266.59,308.939 262.899,313.704C257.242,321.009 252.22,333.678 248.362,350.227C242.897,373.666 239.667,404.943 239.973,439.234C240.191,473.361 243.891,504.351 249.649,527.493C255.988,552.97 264.865,568.942 274.728,568.885C284.594,568.953 293.488,552.99 299.833,527.508C305.595,504.365 309.284,473.366 309.497,439.234C309.798,404.941 306.558,373.667 301.094,350.228C297.236,333.676 292.221,320.997 286.562,313.694C282.87,308.928 278.875,306.41 274.728,306.311ZM274.728,312.873C278.993,312.771 283.048,316.143 286.794,322.103C291.12,328.986 295.009,339.2 298.238,351.886C304.055,374.735 307.724,405.438 308.021,439.234C308.233,473.187 305.021,504.171 299.499,527.314C293.411,552.831 284.555,568.799 274.728,568.866C264.898,568.81 256.024,552.851 249.931,527.329C244.404,504.184 241.203,473.192 241.42,439.234C241.722,405.437 245.402,374.737 251.217,351.886C254.446,339.198 258.326,328.974 262.654,322.091C266.401,316.129 270.462,312.766 274.728,312.873Z" style="fill:rgb(76,76,76);"/>
                </g>
                <path d="M624.563,403.377C624.563,403.377 625.877,404.18 628.225,405.429C629.787,406.26 631.583,407.238 633.785,408.231C634.991,408.776 636.242,409.283 637.576,409.75C638.42,410.046 639.28,410.323 640.161,410.53C641.044,410.736 641.937,410.867 642.826,410.979C644.236,411.155 645.58,411.239 646.907,411.314C648.415,411.399 649.75,411.429 651.039,411.442C654.873,411.48 657.3,411.372 657.3,411.372C657.3,411.372 655.196,410.157 651.776,408.423C650.627,407.841 649.427,407.252 648.05,406.633C646.837,406.088 645.607,405.543 644.274,405.05C643.434,404.738 642.581,404.443 641.702,404.22C640.825,403.996 639.934,403.846 639.049,403.72C637.649,403.52 636.305,403.393 634.984,403.32C632.572,403.187 630.528,403.227 628.758,403.244C626.099,403.27 624.563,403.377 624.563,403.377Z" style="fill:white;"/>
            </g>
            <g id="dream-lens-font-id" transform="matrix(0.8766,0,0,0.8766,150.554,243.607)">
                <g id="letter-m-id" transform="matrix(1,0,0,1,-125.012,0)">
                    <g id="letter-m-base0-id" transform="matrix(1.14077,0,0,1.14077,-46.7362,-277.9)">
                        <path d="M1089,1105.4L1089,1475.36L1000.76,1475.36L1000.76,1105.4L1089,1105.4ZM1353.74,1475.36L1265.49,1475.36L1265.49,1105.4L1353.74,1105.4L1353.74,1475.36Z" style="fill:rgb(252,221,107);"/>
                        <clipPath id="_clip4">
                            <path d="M1089,1105.4L1089,1475.36L1000.76,1475.36L1000.76,1105.4L1089,1105.4ZM1353.74,1475.36L1265.49,1475.36L1265.49,1105.4L1353.74,1105.4L1353.74,1475.36Z"/>
                        </clipPath>
                        <g clip-path="url(#_clip4)">
                            <g id="letter-m-frag-outline-id" transform="matrix(0.8766,0,0,0.8766,42.058,274.149)">
                                <path d="M1294.99,1194.12L1177.7,948.262L1077.04,948.262L1294.99,1405.14L1512.37,949.472L1412.28,948.262L1294.99,1194.12Z" style="fill:rgb(254,184,63);"/>
                            </g>
                        </g>
                        <path d="M1089,1105.4L1089,1475.36L1000.76,1475.36L1000.76,1105.4L1089,1105.4ZM1353.74,1475.36L1265.49,1475.36L1265.49,1105.4L1353.74,1105.4L1353.74,1475.36Z" style="fill:none;stroke:black;stroke-width:7px;stroke-linejoin:miter;stroke-miterlimit:2;"/>
                    </g>
                    <g id="letter-m-frag0-id" transform="matrix(1,0,0,1,1.24234,0)">
                        <path d="M1294.99,1194.12L1194.33,983.104L1093.66,983.104L1294.99,1405.14L1496.32,983.104L1395.66,983.104L1294.99,1194.12Z" style="fill:rgb(252,221,107);stroke:black;stroke-width:7.99px;stroke-linejoin:miter;stroke-miterlimit:2;"/>
                    </g>
                </g>
                <g id="letter-s-outline-id" transform="matrix(1,0,0,1,93.16,0)">
                    <path d="M1766.9,1576.06C1713.89,1564.03 1713.89,1564.03 1704.91,1559.52C1690.54,1552 1683.8,1541.48 1683.8,1527.44C1683.8,1504.39 1704.01,1487.85 1731.41,1487.85C1765.55,1487.85 1782.77,1504.14 1787.11,1519.81C1787.11,1519.81 1827.55,1487.85 1859.88,1462.28C1835.63,1424.69 1792.05,1405.14 1735.01,1405.14C1646.52,1405.14 1590.82,1453.76 1590.82,1530.95C1590.82,1571.55 1606.09,1605.13 1634.39,1627.19C1651.01,1640.22 1665.38,1646.24 1706.71,1656.26C1759.71,1668.29 1759.71,1668.29 1768.7,1672.8C1783.07,1680.32 1789.81,1690.85 1789.81,1704.88C1789.81,1727.94 1769.6,1744.48 1742.19,1744.48C1708.06,1744.48 1690.83,1728.19 1686.49,1712.51C1686.49,1712.51 1646.06,1744.48 1613.73,1770.04C1637.98,1807.63 1681.55,1827.18 1738.6,1827.18C1827.09,1827.18 1882.79,1778.56 1882.79,1701.37C1882.79,1660.77 1867.52,1627.19 1839.22,1605.13C1822.6,1592.1 1808.23,1586.09 1766.9,1576.06" style="fill:none;stroke:black;stroke-width:7.99px;stroke-linecap:butt;stroke-linejoin:miter;stroke-miterlimit:2;"/>
                </g>
                <g id="letter-s-id" transform="matrix(1,0,0,1,93.16,0)">
                    <path d="M1766.9,1576.06C1766.9,1576.06 1713.89,1564.03 1704.91,1559.52C1690.54,1552 1683.8,1541.48 1683.8,1527.44C1683.8,1504.39 1704.01,1487.85 1731.41,1487.85C1765.55,1487.85 1782.77,1504.14 1787.11,1519.81C1787.11,1519.81 1827.55,1487.85 1859.88,1462.28C1835.63,1424.69 1792.05,1405.14 1735.01,1405.14C1646.52,1405.14 1590.82,1453.76 1590.82,1530.95C1590.82,1571.55 1606.09,1605.13 1634.39,1627.19C1651.01,1640.22 1665.38,1646.24 1706.71,1656.26C1759.71,1668.29 1759.71,1668.29 1768.7,1672.8C1783.07,1680.32 1789.81,1690.85 1789.81,1704.88C1789.81,1727.94 1769.6,1744.48 1742.19,1744.48C1708.06,1744.48 1690.83,1728.19 1686.49,1712.51C1686.49,1712.51 1646.06,1744.48 1613.73,1770.04C1637.98,1807.63 1681.55,1827.18 1738.6,1827.18C1827.09,1827.18 1882.79,1778.56 1882.79,1701.37C1882.79,1660.77 1867.52,1627.19 1839.22,1605.13C1822.6,1592.1 1808.23,1586.09 1766.9,1576.06Z" style="fill:rgb(253,139,32);"/>
                    <path d="M1766.9,1576.06C1766.9,1576.06 1713.89,1564.03 1704.91,1559.52C1690.54,1552 1683.8,1541.48 1683.8,1527.44C1683.8,1504.39 1704.01,1487.85 1731.41,1487.85C1765.55,1487.85 1782.77,1504.14 1787.11,1519.81C1787.11,1519.81 1827.55,1487.85 1859.88,1462.28C1835.63,1424.69 1792.05,1405.14 1735.01,1405.14C1646.52,1405.14 1590.82,1453.76 1590.82,1530.95C1590.82,1571.55 1606.09,1605.13 1634.39,1627.19C1651.01,1640.22 1665.38,1646.24 1706.71,1656.26C1759.71,1668.29 1759.71,1668.29 1768.7,1672.8C1783.07,1680.32 1789.81,1690.85 1789.81,1704.88C1789.81,1727.94 1769.6,1744.48 1742.19,1744.48C1708.06,1744.48 1690.83,1728.19 1686.49,1712.51C1686.49,1712.51 1646.06,1744.48 1613.73,1770.04C1637.98,1807.63 1681.55,1827.18 1738.6,1827.18C1827.09,1827.18 1882.79,1778.56 1882.79,1701.37C1882.79,1660.77 1867.52,1627.19 1839.22,1605.13C1822.6,1592.1 1808.23,1586.09 1766.9,1576.06ZM1849.04,1460.67C1825.47,1429.1 1785.8,1413.13 1735.01,1413.13C1693,1413.13 1658.7,1424.42 1634.98,1445.12C1611.65,1465.48 1598.8,1494.91 1598.8,1530.95C1598.8,1568.86 1612.87,1600.3 1639.32,1620.9C1655.21,1633.37 1669.04,1638.9 1708.54,1648.49C1763.07,1660.86 1763.03,1661.02 1772.4,1665.73C1789.87,1674.86 1797.79,1687.83 1797.79,1704.88C1797.79,1732.13 1774.57,1752.46 1742.19,1752.46C1710.57,1752.46 1691.98,1739.6 1683.35,1725.17L1624.57,1771.65C1648.14,1803.22 1687.81,1819.2 1738.6,1819.2C1780.61,1819.2 1814.91,1807.91 1838.63,1787.21C1861.96,1766.85 1874.81,1737.41 1874.81,1701.37C1874.81,1663.47 1860.73,1632.03 1834.29,1611.42C1818.39,1598.95 1804.56,1593.42 1765.04,1583.83C1762.58,1583.26 1710.36,1571.19 1701.21,1566.6C1683.74,1557.46 1675.81,1544.5 1675.81,1527.44C1675.81,1500.2 1699.03,1479.86 1731.41,1479.86C1763.04,1479.86 1781.62,1492.72 1790.26,1507.15L1849.04,1460.67Z" style="fill:white;"/>
                </g>
                <g id="letter-n-outline-id" transform="matrix(1,0,0,1,100.611,0)">
                    <path d="M1271.89,1827.18L1271.89,1405.14L1372.56,1405.14C1372.56,1405.14 1473.22,1616.16 1473.22,1616.16L1473.22,1405.14L1573.89,1405.14L1573.89,1827.18L1473.22,1827.18L1372.56,1616.16L1372.56,1827.18L1271.89,1827.18Z" style="fill:none;stroke:black;stroke-width:7.99px;stroke-linejoin:miter;stroke-miterlimit:2;"/>
                </g>
                <g id="letter-n-id" transform="matrix(1,0,0,1,-24.4011,0)">
                    <g id="letter-n-frag2-id" transform="matrix(-1.31459,-1.11022e-16,4.44089e-16,5.51136,2572.18,-5741.32)">
                        <rect x="664.303" y="1296.68" width="76.576" height="76.576" style="fill:rgb(253,139,32);"/>
                        <path d="M740.879,1296.68L664.303,1296.68L664.303,1373.26L740.879,1373.26L740.879,1296.68ZM734.805,1298.13L734.805,1371.81L670.377,1371.81L670.377,1298.13L734.805,1298.13Z" style="fill:white;"/>
                    </g>
                    <g id="letter-n-frag1-id" transform="matrix(1.31459,0,0,5.51136,523.617,-5741.32)">
                        <rect x="664.303" y="1296.68" width="76.576" height="76.576" style="fill:rgb(253,139,32);"/>
                        <path d="M740.879,1296.68L664.303,1296.68L664.303,1373.26L740.879,1373.26L740.879,1296.68ZM670.377,1298.13L670.377,1371.81L734.805,1371.81L734.805,1298.13L670.377,1298.13Z" style="fill:white;"/>
                    </g>
                    <g id="letter-n-frag0-id" transform="matrix(1,0,0,1,303.24,422.039)">
                        <path d="M1395.66,1405.14L1194.33,983.104L1093.71,983.104L1294.99,1405.14L1395.66,1405.14Z" style="fill:rgb(253,139,32);"/>
                        <path d="M1294.99,1405.14L1093.71,983.104L1194.33,983.104L1395.66,1405.14L1294.99,1405.14ZM1106.37,991.089L1300.03,1397.16L1383,1397.16L1189.29,991.089L1106.37,991.089Z" style="fill:white;"/>
                    </g>
                </g>
                <g id="letter-e-outline-id" transform="matrix(1,0,0,1,100.611,0)">
                    <path d="M1268.1,1405.14L1221.7,1505.81L1070.56,1505.81L1070.56,1566.86L1170.17,1566.86L1134.19,1650.75L1070.56,1650.75L1070.56,1726.52L1190.74,1726.52L1146.62,1827.18L969.891,1827.18L969.891,1405.14L1268.1,1405.14Z" style="fill:none;stroke:black;stroke-width:7.99px;stroke-linejoin:miter;stroke-miterlimit:2;"/>
                </g>
                <g id="letter-e-id" transform="matrix(1,0,0,1,-24.4011,0)">
                    <g id="letter-e-frag1-id" transform="matrix(1.14077,0,0,1.14077,-147.347,-277.9)">
                        <path d="M1264.52,1617.12L1088.96,1617.12L1088.96,1690.65L1232.98,1690.65L1264.52,1617.12ZM1088.96,1563.6L1309.69,1563.6L1350.36,1475.36L1088.96,1475.36L1088.96,1563.6Z" style="fill:rgb(253,139,32);"/>
                        <path d="M1264.52,1617.12L1088.96,1617.12L1088.96,1690.65L1232.98,1690.65L1264.52,1617.12ZM1095.55,1623.72L1095.55,1684.06L1228.63,1684.06L1254.52,1623.72L1095.55,1623.72ZM1088.96,1563.6L1309.69,1563.6L1350.36,1475.36L1088.96,1475.36L1088.96,1563.6ZM1095.55,1481.95L1095.55,1557L1305.47,1557L1340.06,1481.95L1095.55,1481.95Z" style="fill:white;"/>
                    </g>
                    <g id="letter-e-base1-id" transform="matrix(1,0,0,1,397.63,422.039)">
                        <path d="M697.272,983.104L697.272,1405.14L874.006,1405.14L918.124,1304.48L797.938,1304.48L797.938,983.104L697.272,983.104Z" style="fill:rgb(253,139,32);"/>
                        <path d="M697.272,983.104L697.272,1405.14L874.006,1405.14L918.124,1304.48L797.938,1304.48L797.938,983.104L697.272,983.104ZM789.953,991.089L705.258,991.089L705.258,1397.16L868.787,1397.16L905.906,1312.46L797.938,1312.46C793.528,1312.46 789.953,1308.89 789.953,1304.48L789.953,991.089Z" style="fill:white;"/>
                    </g>
                </g>
                <path id="letter-al-id" d="M969.891,1726.52L1097.79,1726.52L1145.32,1827.18L869.225,1827.18L869.225,1255.22L813.457,1255.22L747.752,1405.14L647.086,1405.14L828.113,983.104L969.891,983.104L969.891,1726.52ZM845.895,1181.21L869.225,1181.21L869.225,1127.98L845.895,1181.21Z" style="fill:rgb(252,221,107);"/>
                <clipPath id="_clip5">
                    <path id="letter-al-id1" serif:id="letter-al-id" d="M969.891,1726.52L1097.79,1726.52L1145.32,1827.18L869.225,1827.18L869.225,1255.22L813.457,1255.22L747.752,1405.14L647.086,1405.14L828.113,983.104L969.891,983.104L969.891,1726.52ZM845.895,1181.21L869.225,1181.21L869.225,1127.98L845.895,1181.21Z"/>
                </clipPath>
                <g clip-path="url(#_clip5)">
                    <g id="letter-e-frag-shadow-id" transform="matrix(1.14077,0,0,1.14077,-161.983,-277.9)">
                        <path d="M826.675,1252.48L795.135,1326.01L651.109,1326.01L651.109,1252.48L826.675,1252.48ZM912.516,1105.4L871.844,1193.64L651.109,1193.64L651.109,1105.4L912.516,1105.4Z" style="fill:rgb(254,184,63);stroke:rgb(254,184,63);stroke-width:7px;stroke-linejoin:miter;stroke-miterlimit:2;"/>
                    </g>
                </g>
                <path id="letter-al-id2" serif:id="letter-al-id" d="M969.891,1726.52L1097.79,1726.52L1145.32,1827.18L869.225,1827.18L869.225,1255.22L813.457,1255.22L747.752,1405.14L647.086,1405.14L828.113,983.104L969.891,983.104L969.891,1726.52ZM845.895,1181.21L869.225,1181.21L869.225,1127.98L845.895,1181.21Z" style="fill:none;stroke:black;stroke-width:7.99px;stroke-linejoin:miter;stroke-miterlimit:6;"/>
                <g id="letter-e-id1" serif:id="letter-e-id">
                    <g id="letter-e-frag0-id" transform="matrix(1.14077,0,0,1.14077,-171.748,-277.9)">
                        <path d="M826.675,1252.48L795.135,1326.01L651.109,1326.01L651.109,1252.48L826.675,1252.48ZM912.516,1105.4L871.844,1193.64L651.109,1193.64L651.109,1105.4L912.516,1105.4Z" style="fill:rgb(252,221,107);"/>
                        <clipPath id="_clip6">
                            <path d="M826.675,1252.48L795.135,1326.01L651.109,1326.01L651.109,1252.48L826.675,1252.48ZM912.516,1105.4L871.844,1193.64L651.109,1193.64L651.109,1105.4L912.516,1105.4Z"/>
                        </clipPath>
                        <g clip-path="url(#_clip6)">
                            <g id="letter-e-base-shadow-id" transform="matrix(0.8766,0,0,0.8766,52.9403,243.607)">
                                <path d="M696.03,983.15L696.03,1405.14L872.764,1405.14L916.882,1304.48L796.696,1304.48L796.696,983.15L696.03,983.15Z" style="fill:rgb(254,184,63);"/>
                            </g>
                        </g>
                        <path d="M826.675,1252.48L795.135,1326.01L651.109,1326.01L651.109,1252.48L826.675,1252.48ZM912.516,1105.4L871.844,1193.64L651.109,1193.64L651.109,1105.4L912.516,1105.4Z" style="fill:none;stroke:black;stroke-width:7px;stroke-linejoin:miter;stroke-miterlimit:2;"/>
                    </g>
                    <g id="letter-e-base0-id" transform="matrix(1,0,0,1,-125.012,2.84217e-14)">
                        <path d="M696.03,983.15L696.03,1405.14L872.764,1405.14L916.882,1304.48L796.696,1304.48L796.696,983.15L696.03,983.15Z" style="fill:rgb(252,221,107);"/>
                        <clipPath id="_clip7">
                            <path d="M696.03,983.15L696.03,1405.14L872.764,1405.14L916.882,1304.48L796.696,1304.48L796.696,983.15L696.03,983.15Z"/>
                        </clipPath>
                        <g clip-path="url(#_clip7)">
                            <g id="letter-r-shadow-id" transform="matrix(1.02435,0,0,0.993918,-2.68046,8.59248)">
                                <path d="M671.042,1204.2C743.976,1225.22 760.066,1289.41 730.063,1405.14L628.497,1405.14C635.709,1338.95 640.806,1277.88 628.497,1259C620.124,1249.39 595.658,1251.77 581.645,1259L581.645,1405.14L480.979,1405.14L480.979,980.521L660.258,980.521C721.984,980.521 772.097,1030.63 772.097,1092.36C772.097,1154.09 732.768,1204.2 671.042,1204.2" style="fill:rgb(254,184,63);"/>
                            </g>
                        </g>
                        <path d="M696.03,983.15L696.03,1405.14L872.764,1405.14L916.882,1304.48L796.696,1304.48L796.696,983.15L696.03,983.15Z" style="fill:none;stroke:black;stroke-width:7.99px;stroke-linejoin:miter;stroke-miterlimit:2;"/>
                    </g>
                </g>
                <g id="letter-r-id" transform="matrix(1.02435,0,0,0.993918,-143.809,8.59248)">
                    <path d="M671.042,1204.2C743.976,1225.22 760.066,1289.41 730.063,1405.14L628.497,1405.14C635.709,1338.95 640.806,1277.88 628.497,1259C620.124,1249.39 595.658,1251.77 581.645,1259L581.645,1405.14L480.979,1405.14L480.979,980.521L660.258,980.521C721.984,980.521 772.097,1030.63 772.097,1092.36C772.097,1154.09 732.768,1204.2 671.042,1204.2" style="fill:rgb(252,221,107);"/>
                    <clipPath id="_clip8">
                        <path d="M671.042,1204.2C743.976,1225.22 760.066,1289.41 730.063,1405.14L628.497,1405.14C635.709,1338.95 640.806,1277.88 628.497,1259C620.124,1249.39 595.658,1251.77 581.645,1259L581.645,1405.14L480.979,1405.14L480.979,980.521L660.258,980.521C721.984,980.521 772.097,1030.63 772.097,1092.36C772.097,1154.09 732.768,1204.2 671.042,1204.2"/>
                    </clipPath>
                    <g clip-path="url(#_clip8)">
                        <g id="letter-d-shadow-id" transform="matrix(1.04134,0,0,1,102.234,-5.68434e-14)">
                            <path d="M237.911,1405.14L111.818,1405.14L111.818,980.521L237.911,980.521C355.089,980.521 450.222,1075.65 450.222,1192.83C450.222,1310.01 355.089,1405.14 237.911,1405.14ZM260.924,1304.48C305.939,1304.48 342.484,1246.67 342.484,1192.83C342.484,1138.99 305.938,1081.19 260.924,1081.19L212.484,1081.19L212.484,1304.48L260.924,1304.48Z" style="fill:rgb(254,184,63);"/>
                        </g>
                    </g>
                    <path d="M671.042,1204.2C743.976,1225.22 760.066,1289.41 730.063,1405.14L628.497,1405.14C635.709,1338.95 640.806,1277.88 628.497,1259C620.124,1249.39 595.658,1251.77 581.645,1259L581.645,1405.14L480.979,1405.14L480.979,980.521L660.258,980.521C721.984,980.521 772.097,1030.63 772.097,1092.36C772.097,1154.09 732.768,1204.2 671.042,1204.2" style="fill:none;stroke:black;stroke-width:7px;stroke-linejoin:miter;stroke-miterlimit:2;"/>
                </g>
                <g id="letter-lens-nozzle-id" transform="matrix(0.153819,0,0,0.153819,398.143,944.243)">
                    <path d="M649.073,608.279C871.535,608.279 1052.14,788.889 1052.14,1011.35C1052.14,1233.81 871.535,1414.42 649.073,1414.42C426.612,1414.42 246.002,1233.81 246.002,1011.35C246.002,788.889 426.612,608.279 649.073,608.279ZM649.073,705.358C817.956,705.358 955.066,842.468 955.066,1011.35C955.066,1180.23 817.956,1317.34 649.073,1317.34C480.191,1317.34 343.08,1180.23 343.08,1011.35C343.08,842.468 480.191,705.358 649.073,705.358Z" style="fill:rgb(76,76,76);stroke:black;stroke-width:45.51px;"/>
                </g>
                <g id="letter-lens-glare-id" transform="matrix(0.153819,0,0,0.153819,398.143,944.243)">
                    <circle cx="649.073" cy="1011.35" r="305.993" style="fill:white;stroke:black;stroke-width:45.51px;"/>
                </g>
                <g id="letter-lens-id" transform="matrix(0.149931,0,0,0.149931,419.845,955.771)">
                    <path d="M345.2,1110.39C310.842,1070.05 290.095,1017.77 290.095,960.688C290.095,833.16 393.632,729.624 521.159,729.624C501.542,788.054 533.053,851.419 591.483,871.036C637.351,886.436 686.26,870.328 714.66,834.425C738.41,870.727 752.223,914.107 752.223,960.688C752.223,1088.22 648.687,1191.75 521.159,1191.75C494.166,1191.75 468.247,1187.11 444.157,1178.59L444.401,1178.17C449.493,1169.36 452.407,1159.14 452.407,1148.24C452.407,1115.16 425.545,1088.3 392.46,1088.3C373.505,1088.3 356.593,1097.11 345.605,1110.86L345.2,1110.39ZM521.159,900.692C554.272,900.692 581.155,927.575 581.155,960.688C581.155,993.801 554.272,1020.68 521.159,1020.68C488.047,1020.68 461.163,993.801 461.163,960.688C461.163,927.575 488.047,900.692 521.159,900.692Z"/>
                </g>
                <g id="letter-d-id" transform="matrix(1.06669,0,0,1,-189.919,0)">
                    <g id="film-outline1-id" transform="matrix(1,0,0,1,125.012,0)">
                        <path d="M361.935,1365.12C363.396,1381.94 365.126,1401.72 365.971,1411.98L342.343,1424.77L340.636,1403.14L254.49,1444.31L255.49,1461.94L228.415,1477.51C227.171,1464.72 223.703,1422.42 221.975,1405.14L237.911,1405.14C284.193,1405.14 327.035,1390.3 361.935,1365.12Z" style="fill:none;stroke:rgb(252,221,107);stroke-width:15.45px;"/>
                    </g>
                    <g id="film-outline0-id" transform="matrix(1,0,0,1,125.012,0)">
                        <path d="M342.484,1192.83C342.484,1246.67 305.939,1304.48 260.924,1304.48L212.484,1304.48C200.175,1205.62 182.44,1106.18 160.8,1005.91L186.457,992.728L192.954,1017.75L274.503,985.63L269.924,963.643C269.924,963.643 281.02,960.835 294.305,957.008C294.305,957.008 301.788,982.981 304.117,991.065C322.874,1059.96 334.855,1122.75 342.484,1192.83" style="fill:none;stroke:rgb(252,221,106);stroke-width:15.45px;"/>
                    </g>
                    <g id="film-edges1-id" transform="matrix(1,0,0,1,125.012,0)">
                        <path d="M361.935,1365.12C363.396,1381.94 365.126,1401.72 365.971,1411.98L342.343,1424.77L340.636,1403.14L254.49,1444.31L255.49,1461.94L228.415,1477.51C227.171,1464.72 223.703,1422.42 221.975,1405.14L237.911,1405.14C284.193,1405.14 327.035,1390.3 361.935,1365.12Z" style="stroke:black;stroke-width:7.72px;"/>
                    </g>
                    <g id="film-center1-id" transform="matrix(1.06945,0,0,1.14077,17.0347,-277.9)">
                        <path d="M417.992,1452.89L417.993,1452.89L419.481,1473.6L338.929,1509.69C338.326,1497.88 337.647,1486.17 336.866,1474.98L336.972,1474.97C350.806,1474.14 363.938,1472.01 376.697,1468.65C391.09,1464.86 404.963,1459.53 417.992,1452.89Z" style="fill:rgb(153,87,0);"/>
                    </g>
                    <g id="letter-d-body-id" transform="matrix(1,0,0,0.993918,125.012,8.59248)">
                        <path d="M237.911,1405.14L111.818,1405.14L111.818,980.521L237.911,980.521C355.089,980.521 450.222,1075.65 450.222,1192.83C450.222,1310.01 355.089,1405.14 237.911,1405.14ZM260.924,1304.48C305.939,1304.48 342.484,1246.67 342.484,1192.83C342.484,1138.99 305.938,1081.19 260.924,1081.19L212.484,1081.19L212.484,1304.48L260.924,1304.48Z" style="fill:rgb(252,221,107);"/>
                        <clipPath id="_clip9">
                            <path d="M237.911,1405.14L111.818,1405.14L111.818,980.521L237.911,980.521C355.089,980.521 450.222,1075.65 450.222,1192.83C450.222,1310.01 355.089,1405.14 237.911,1405.14ZM260.924,1304.48C305.939,1304.48 342.484,1246.67 342.484,1192.83C342.484,1138.99 305.938,1081.19 260.924,1081.19L212.484,1081.19L212.484,1304.48L260.924,1304.48Z"/>
                        </clipPath>
                        <g clip-path="url(#_clip9)">
                            <g id="film-shadow-id" transform="matrix(1,0,0,1.01851,-21.1174,-20.5017)">
                                <path d="M342.484,1192.83C342.484,1246.67 305.939,1304.48 260.924,1304.48L212.484,1304.48C200.175,1205.62 182.44,1106.18 160.8,1005.91L186.457,992.728L192.954,1017.75L274.503,985.63L269.924,963.643C269.924,963.643 281.02,960.835 294.305,957.008C294.305,957.008 301.788,982.981 304.117,991.065C322.874,1059.96 334.855,1122.75 342.484,1192.83" style="fill:rgb(254,184,63);"/>
                            </g>
                        </g>
                        <path d="M237.911,1405.14L111.818,1405.14L111.818,980.521L237.911,980.521C355.089,980.521 450.222,1075.65 450.222,1192.83C450.222,1310.01 355.089,1405.14 237.911,1405.14ZM260.924,1304.48C305.939,1304.48 342.484,1246.67 342.484,1192.83C342.484,1138.99 305.938,1081.19 260.924,1081.19L212.484,1081.19L212.484,1304.48L260.924,1304.48Z" style="fill:none;stroke:black;stroke-width:7.75px;stroke-linejoin:miter;stroke-miterlimit:2;"/>
                    </g>
                    <g id="film-edges0-id" transform="matrix(1,0,0,1,125.012,0)">
                        <path d="M342.484,1192.83C342.484,1246.67 305.939,1304.48 260.924,1304.48L212.484,1304.48C200.175,1205.62 182.44,1106.18 160.8,1005.91L186.457,992.728L192.954,1017.75L274.503,985.63L269.924,963.643C269.924,963.643 281.02,960.835 294.305,957.008C294.305,957.008 301.788,982.981 304.117,991.065C322.874,1059.96 334.855,1122.75 342.484,1192.83" style="fill:none;stroke:black;stroke-width:7.72px;"/>
                        <path d="M342.484,1192.83C342.484,1246.67 305.939,1304.48 260.924,1304.48L212.484,1304.48C200.175,1205.62 182.44,1106.18 160.8,1005.91L186.457,992.728L192.954,1017.75L274.503,985.63L269.924,963.643C269.924,963.643 281.02,960.835 294.305,957.008C294.305,957.008 301.788,982.981 304.117,991.065C322.874,1059.96 334.855,1122.75 342.484,1192.83"/>
                    </g>
                    <g id="film-center0-id" transform="matrix(1.06945,0,0,1.14077,17.0347,-277.9)">
                        <path d="M328.981,1387.11C322.546,1327.76 301.01,1207.28 281.389,1135.76L356.991,1108.07C368.214,1143.24 395.124,1246.08 404.977,1346.69L404.977,1346.69C391.011,1370.14 369.304,1387.11 344.945,1387.11L329.09,1387.11" style="fill:rgb(153,87,0);"/>
                    </g>
                    <g transform="matrix(0.999022,-0.0442171,0.0442171,0.999022,91.0894,99.7289)">
                        <path d="M216.949,1161.11C216.949,1161.11 229.404,1156.35 245.154,1149.91C251.077,1147.48 257.472,1144.85 263.806,1142.04C270.14,1139.24 276.405,1136.27 282.201,1133.51C297.614,1126.19 309.587,1120.18 309.587,1120.18C310.199,1119.91 310.493,1119.16 310.243,1118.51C309.993,1117.86 309.293,1117.55 308.682,1117.82C308.682,1117.82 296.236,1122.6 280.486,1129.05C274.562,1131.47 268.163,1134.09 261.826,1136.89C255.489,1139.68 249.219,1142.64 243.422,1145.4C228.008,1152.72 216.044,1158.75 216.044,1158.75C215.432,1159.02 215.139,1159.77 215.389,1160.42C215.639,1161.07 216.338,1161.38 216.949,1161.11Z"/>
                    </g>
                    <g transform="matrix(1,0,0,1,117.386,-34.0195)">
                        <path d="M216.953,1161.11C216.953,1161.11 229.41,1156.35 245.162,1149.9C251.085,1147.48 257.48,1144.84 263.814,1142.04C270.148,1139.23 276.413,1136.26 282.208,1133.51C297.619,1126.18 309.591,1120.18 309.591,1120.18C310.2,1119.91 310.489,1119.16 310.237,1118.51C309.985,1117.86 309.287,1117.56 308.678,1117.82C308.678,1117.82 296.23,1122.61 280.478,1129.05C274.554,1131.48 268.154,1134.1 261.817,1136.89C255.48,1139.69 249.211,1142.65 243.415,1145.4C228.002,1152.72 216.04,1158.76 216.04,1158.76C215.432,1159.02 215.142,1159.77 215.394,1160.42C215.646,1161.07 216.345,1161.38 216.953,1161.11Z"/>
                    </g>
                </g>
            </g>
            <defs>
                <style type="text/css">
                    #dream-kid-id {
                        animation-name: hover-animation;
                        animation-duration: 4s;
                        animation-iteration-count: infinite;
                        animation-play-state: running;
                        -webkit-animation-name: hover-animation;
                        -webkit-animation-duration: 4s;
                        -webkit-animation-iteration-count: infinite;
                        -webkit-animation-play-state: running;
                    }

                    @keyframes hover-animation {
                        0% {
                            transform: translate(0px, 0px);
                            animation-timing-function:ease-in-out
                        }

                        50% {
                            transform: translate(0px, 5%);
                            animation-timing-function:ease-in-out
                        }

                        100% {
                            transform: translate(0px, 0px);
                            animation-timing-function:ease-in-out
                        }
                    }

                    @-webkit-keyframes hover-animation {
                        0% {
                            -webkit-transform: translate(0px, 0%);
                            -webkit-animation-timing-function:ease-in-out
                        }

                        50% {
                            -webkit-transform: translate(0px, 5%);
                            -webkit-animation-timing-function:ease-in-out
                        }

                        100% {
                            -webkit-transform: translate(0px, 0%);
                            -webkit-animation-timing-function:ease-in-out
                        }
                    }

                    @-moz-keyframes hover-animation {
                        0% {
                            -moz-transform: translate(0px, 0%);
                            -moz-animation-timing-function: ease-in-out
                        }

                        50% {
                            -moz-transform: translate(0px, 5%);
                            -moz-animation-timing-function: ease-in-out
                        }

                        100% {
                            -moz-transform: translate(0px, 0%);
                            -moz-animation-timing-function: ease-in-out
                        }
                    }

                    @-o-keyframes hover-animation {
                        0% {
                            -o-transform: translate(0px, 0%);
                            -o-animation-timing-function: ease-in-out
                        }

                        50% {
                            -o-transform: translate(0px, 5%);
                            -o-animation-timing-function: ease-in-out
                        }

                        100% {
                            -o-transform: translate(0px, 0%);
                            -o-animation-timing-function: ease-in-out
                        }
                    }
                </style>
            </defs>
            
        </g>
    </g>
</svg>
